<svg width="1313" height="1158" viewBox="0 0 1313 1158" fill="none" xmlns="http://www.w3.org/2000/svg">
<circle cx="579" cy="579" r="579" fill="#041662"/>
<path d="M411.63 502.992C422.093 495.558 425.354 481.289 417.808 470.906C397.719 443.263 371.416 421.854 341.425 408.985C304.881 393.305 264.792 391.133 227.059 402.791C189.326 414.448 155.943 439.319 131.821 473.742C107.7 508.165 94.1148 550.323 93.0657 594.01C92.0165 637.698 103.559 680.607 125.993 716.424C148.428 752.24 180.57 779.071 217.689 792.969C254.809 806.866 294.944 807.095 332.188 793.622C362.711 782.581 389.971 762.815 411.344 736.469C419.446 726.482 416.944 712.036 406.89 704.017V704.017C395.242 694.727 378.228 697.76 367.966 708.561C353.567 723.716 336.262 735.217 317.231 742.102C289.871 751.999 260.386 751.831 233.117 741.622C205.849 731.412 182.236 711.701 165.755 685.39C149.274 659.078 140.795 627.556 141.566 595.462C142.336 563.368 152.316 532.397 170.036 507.109C187.757 481.821 212.281 463.55 240.001 454.986C267.72 446.423 297.17 448.018 324.017 459.537C342.816 467.604 359.642 480.238 373.344 496.387C382.904 507.655 399.583 511.551 411.63 502.992V502.992Z" fill="url(#paint0_linear_16_22)"/>
<rect width="51.9313" height="409.813" rx="25.9656" transform="matrix(0.644369 0.764715 -0.642071 0.766645 619.129 409.25)" fill="#DC143C"/>
<rect width="48.5064" height="354.02" rx="24.2532" transform="matrix(0.886754 -0.462241 0.363718 0.931509 592 443.422)" fill="#DC143C"/>
<path d="M1292.17 76.6125C1303.56 76.7758 1312.63 87.7607 1312.44 101.148L1309.3 319.304C1309.11 332.691 1299.73 343.411 1288.35 343.247C1276.97 343.084 1267.89 332.099 1268.09 318.712L1270.87 124.796L1106 122.43C1094.61 122.267 1085.54 111.282 1085.73 97.8948C1085.93 84.5077 1095.31 73.7877 1106.69 73.951L1292.17 76.6125ZM716.377 724.598L1277.5 83.503L1306.15 118.201L745.031 759.296L716.377 724.598Z" fill="url(#paint1_linear_16_22)"/>
<defs>
<linearGradient id="paint0_linear_16_22" x1="276" y1="523" x2="336" y2="742.5" gradientUnits="userSpaceOnUse">
<stop offset="0.015625" stop-color="white"/>
<stop offset="1" stop-color="#DC143C"/>
</linearGradient>
<linearGradient id="paint1_linear_16_22" x1="735.656" y1="735.86" x2="1189.38" y2="6.65754" gradientUnits="userSpaceOnUse">
<stop stop-color="#DC143C"/>
<stop offset="0.552083" stop-color="#041662"/>
</linearGradient>
</defs>
</svg>
